HIERARCHY
ROOT Hips
{
	OFFSET	0.00	0.00	0.00
	CHANNELS 6 Xposition Yposition Zposition Zrotation Xrotation Yrotation
	JOINT Spine
	{
		OFFSET	 0.00	0.01	 0.00
		CHANNELS 3 Zrotation Xrotation Yrotation
		JOINT Spine1
		{
			OFFSET	 0.00	 2.45913012437421	 0.00
			CHANNELS 3 Zrotation Xrotation Yrotation
            JOINT Neck
            {
                OFFSET	 0.00	 2.48462964506057	 0.00
                CHANNELS 3 Zrotation Xrotation Yrotation
                JOINT Head
                {
                    OFFSET	 0.00	 0.927524780924562	 0.00
                    CHANNELS 3 Zrotation Xrotation Yrotation
                    End Site 
                    {
                        OFFSET	 0.00	 1.14999962169752	 0.00
                    }
                }
            }
			JOINT LeftShoulder
			{
				OFFSET	 0.00	 2.48462964506057	 0.00
				CHANNELS 3 Zrotation Xrotation Yrotation
				JOINT LeftUpArm
				{
					OFFSET	 0.00	 1.24881979654096	 0.00
					CHANNELS 3 Zrotation Xrotation Yrotation
					JOINT LeftForeArm
					{
						OFFSET	 0.00	2.59758046908119	 0.00
						CHANNELS 3 Zrotation Xrotation Yrotation
						JOINT LeftHand
						{
							OFFSET	 0.00	2.45542024364365	 0.00
							CHANNELS 3 Zrotation Xrotation Yrotation
							JOINT LeftHandThumb 
							{
								OFFSET	 0.00	0.00	 0.00
								CHANNELS 3 Zrotation Xrotation Yrotation
								End Site
								{
									OFFSET	 0.00	0.00	1.00000003353624
								}
							}
							JOINT L_Wrist_End 
							{
								OFFSET	 0.00	0.99999967115358	 0.00
								CHANNELS 3 Zrotation Xrotation Yrotation
								End Site 
								{
									OFFSET	 0.00	 0.00	 0.00
								}
							}
						}
					}
				}
			}
			JOINT RightShoulder
			{
				OFFSET	 0.00	 2.48462964506057	 0.00
				CHANNELS 3 Zrotation Xrotation Yrotation
				JOINT RightUpArm
				{
					OFFSET	 0.00	 1.24881979654096	 0.00
					CHANNELS 3 Zrotation Xrotation Yrotation
					JOINT RightForeArm
					{
						OFFSET	 0.00	2.59758046908119	 0.00
						CHANNELS 3 Zrotation Xrotation Yrotation
						JOINT RightHand
						{
							OFFSET	 0.00	2.45542024364365	 0.00
							CHANNELS 3 Zrotation Xrotation Yrotation
							JOINT RightHandThumb 
							{
								OFFSET	 0.00	0.00	 0.00
								CHANNELS 3 Zrotation Xrotation Yrotation
								End Site
								{
									OFFSET	 0.00	0.00	1.00000003353624
								}
							}
							JOINT R_Wrist_End 
							{
								OFFSET	 0.00	0.99999967115358	 0.00
								CHANNELS 3 Zrotation Xrotation Yrotation
								End Site 
								{
									OFFSET	 0.00	 0.00	 0.00
								}
							}
						}
					}
				}
			}
		}
	}
	JOINT LeftUpLeg
	{
		OFFSET	 1.2719394002717	 0.00	 0.00
		CHANNELS 3 Zrotation Xrotation Yrotation
		JOINT LeftLowLeg
		{
			OFFSET	 0.00	-4.3429100912261	 0.00
			CHANNELS 3 Zrotation Xrotation Yrotation
			JOINT LeftFoot
			{
				OFFSET	 0.00	-4.48767017425826	 0.00
				CHANNELS 3 Zrotation Xrotation Yrotation
				JOINT LeftToeBase
                {
                    OFFSET	 0.00	0.00	 1.51507020887566
                    CHANNELS 3 Zrotation Xrotation Yrotation
                    End Site 
                    {
                        OFFSET	 0.00	0.00	 0.75000010571191
                    }
                }
			}
		}
	}
	JOINT RightUpLeg
	{
		OFFSET	 -1.2719393604653	 0.00	 0.00
		CHANNELS 3 Zrotation Xrotation Yrotation
		JOINT RightLowLeg
		{
			OFFSET	 0.00	-4.3429100912261	 0.00
			CHANNELS 3 Zrotation Xrotation Yrotation
			JOINT RightFoot
			{
				OFFSET	 0.00	-4.48767017425826	 0.00
				CHANNELS 3 Zrotation Xrotation Yrotation
				JOINT RightToeBase
                {
                    OFFSET	 0.00	0.00	 1.51507020887566
                    CHANNELS 3 Zrotation Xrotation Yrotation
                    End Site 
                    {
                        OFFSET	 0.00	0.00	 0.749999965609858
                    }
                }   
			}
		}
	}
}
MOTION 
Frames:	17 
Frame Time: 0.02 
 2.5179600524902344 7.558889770507813 9.818610229492187 -155.89 81.7329 158.362 1.63934 -10.4227 -1.81057 1.57153 5.3209 -2.0986 -2.51363 33.7089 4.49538 12.7974 -48.2451 9.65989 -90.86598 -16.8148 -4.55511 -3.70776 8.87844 -30.9942 0.0 20.7818 0.0 28.8861 -10.3766 29.9399 0.0 0.0 0.0 0.0 0.0 0.0 98.39307 -12.3912 0.760651 3.6873 6.71201 36.203 0.0 20.179 0.0 -19.8203 -4.51271 -29.1642 0.0 0.0 0.0 0.0 0.0 0.0 4.86244 -5.8002 1.56178 0.0 7.44263 0.0 8.41853 6.8059397 2.26162 0.0 -34.415 0.0 2.92952 -3.59125 0.639632 0.0 5.69842 0.0 8.74128 9.652929 -9.21752 0.0 -26.8152 0.0 
  2.5175599670410156 7.559409790039062 9.818579711914062 -155.954 81.7211 158.413 1.64079 -10.4272 -1.80528 1.56017 5.34752 -2.09435 -2.49135 33.6982 4.45992 12.7859 -48.2545 9.66012 -90.86439 -16.8266 -4.5536 -3.76651 8.9167 -31.0588 0.0 20.7568 0.0 28.9148 -10.3541 29.9086 0.0 0.0 0.0 0.0 0.0 0.0 98.33484 -12.3212 0.896077 3.83554 6.58899 36.1343 0.0 20.2371 0.0 -19.813 -4.43498 -29.2008 0.0 0.0 0.0 0.0 0.0 0.0 4.86159 -5.81731 1.55799 0.0 7.44882 0.0 8.40078 6.8051796 2.27212 0.0 -34.3998 0.0 2.92841 -3.61532 0.647134 0.0 5.70992 0.0 8.72954 9.64883 -9.21336 0.0 -26.8317 0.0 
  2.517100067138672 7.559600219726563 9.8185302734375 -155.967 81.7219 158.413 1.64189 -10.4171 -1.79751 1.5565 5.35568 -2.08701 -2.49547 33.7301 4.45039 12.7845 -48.2717 9.644 -90.88664 -16.8188 -4.5503 -3.80953 8.94036 -31.1344 0.0 20.7548 0.0 28.8747 -10.3091 29.9028 0.0 0.0 0.0 0.0 0.0 0.0 98.39522 -12.3946 0.749688 3.75825 6.71425 36.3002 0.0 20.1892 0.0 -19.7615 -4.42872 -29.2392 0.0 0.0 0.0 0.0 0.0 0.0 4.86307 -5.81062 1.55972 0.0 7.43934 0.0 8.39877 6.80832 2.2802 0.0 -34.4067 0.0 2.92811 -3.6302 0.624171 0.0 5.73417 0.0 8.72396 9.64533 -9.1763 0.0 -26.8438 0.0 
  2.5168699645996093 7.5593701171875 9.818480224609376 -155.939 81.7299 158.382 1.61124 -10.4242 -1.83392 1.61884 5.40293 -2.11502 -2.59634 33.7501 4.55627 12.7656 -48.2903 9.59017 -90.937744 -16.8282 -4.53634 -3.86375 8.907 -31.193 0.0 20.787 0.0 28.8682 -10.2911 29.8881 0.0 0.0 0.0 0.0 0.0 0.0 98.38159 -12.3211 0.778099 3.76013 6.70406 36.2627 0.0 20.1756 0.0 -19.5724 -4.4012 -28.8237 0.0 0.0 0.0 0.0 0.0 0.0 4.86541 -5.79418 1.56311 0.0 7.42917 0.0 8.3901 6.8054705 2.27755 0.0 -34.394897 0.0 2.92941 -3.62633 0.624538 0.0 5.74498 0.0 8.72122 9.64295 -9.16993 0.0 -26.8405 0.0 
  2.5166200256347655 7.559240112304687 9.818489990234376 -155.946 81.7175 158.391 1.62178 -10.4388 -1.83288 1.59707 5.42587 -2.11802 -2.57626 33.7795 4.53088 12.7591 -48.2807 9.60017 -90.9436 -16.8114 -4.4927 -3.89883 8.91127 -31.2088 0.0 20.801 0.0 28.8821 -10.2815 29.8094 0.0 0.0 0.0 0.0 0.0 0.0 98.40066 -12.3133 0.765362 3.79447 6.70363 36.2214 0.0 20.2013 0.0 -19.7028 -4.45119 -29.1076 0.0 0.0 0.0 0.0 0.0 0.0 4.87001 -5.80132 1.55491 0.0 7.4206 0.0 8.39304 6.80921 2.28671 0.0 -34.4029 0.0 2.9343 -3.63463 0.638505 0.0 5.73997 0.0 8.72837 9.64468 -9.18033 0.0 -26.842201 0.0 
  2.516479949951172 7.5587701416015625 9.818499755859374 -155.996 81.6914 158.447 1.62562 -10.4725 -1.83128 1.59081 5.44778 -2.11797 -2.58158 33.8128 4.53874 12.7549 -48.2739 9.60614 -90.94716 -16.813 -4.47382 -3.94873 8.9577 -31.126 0.0 20.7818 0.0 28.9196 -10.2575 29.7783 0.0 0.0 0.0 0.0 0.0 0.0 98.42212 -12.2943 0.778071 3.79941 6.67571 36.1582 0.0 20.1841 0.0 -19.7103 -4.46876 -29.0542 0.0 0.0 0.0 0.0 0.0 0.0 4.87428 -5.82398 1.57448 0.0 7.41366 0.0 8.3892 6.80593 2.26375 0.0 -34.3922 0.0 2.93887 -3.64311 0.652742 0.0 5.7099 0.0 8.73812 9.65287 -9.20138 0.0 -26.8317 0.0 
  2.5164599609375 7.55781005859375 9.8185400390625 -156.081 81.6615 158.544 1.62775 -10.5133 -1.82758 1.58593 5.45148 -2.11482 -2.61069 33.8766 4.57412 12.7703 -48.2873 9.60799 -90.95805 -16.7772 -4.44903 -3.98189 8.97167 -31.0372 0.0 20.7502 0.0 28.8862 -10.2274 29.7003 0.0 0.0 0.0 0.0 0.0 0.0 98.43451 -12.2924 0.743475 3.81049 6.66893 36.2034 0.0 20.1502 0.0 -19.7258 -4.42416 -28.9903 0.0 0.0 0.0 0.0 0.0 0.0 4.8727 -5.84246 1.57434 0.0 7.3921 0.0 8.39677 6.81522 2.25805 0.0 -34.4015 0.0 2.93899 -3.64989 0.645472 0.0 5.67481 0.0 8.72563 9.65946 -9.21262 0.0 -26.8177 0.0 
  2.5165499877929687 7.556610107421875 9.81843994140625 -156.202 81.6209 158.669 1.63924 -10.5692 -1.82601 1.56324 5.44883 -2.11679 -2.64471 33.9435 4.6223 12.7921 -48.2937 9.61627 -90.968636 -16.7429 -4.40573 -4.00394 8.9724 -31.026 0.0 20.7322 0.0 28.8536 -10.1813 29.7589 0.0 0.0 0.0 0.0 0.0 0.0 98.42298 -12.2766 0.74628 3.87712 6.66257 36.2348 0.0 20.1431 0.0 -19.7346 -4.37533 -29.0596 0.0 0.0 0.0 0.0 0.0 0.0 4.87149 -5.86819 1.58496 0.0 7.36736 0.0 8.3961 6.8182697 2.24511 0.0 -34.397 0.0 2.93676 -3.66671 0.606687 0.0 5.63842 0.0 8.71574 9.67205 -9.18739 0.0 -26.8263 0.0 
  2.5168699645996093 7.555079956054687 9.8185400390625 -156.289 81.5945 158.755 1.62952 -10.6552 -1.8485 1.58427 5.52957 -2.13777 -2.71111 33.969 4.70833 12.7776 -48.306 9.6214 -91.01183 -16.7576 -4.41747 -4.03471 8.98152 -31.0766 0.0 20.7001 0.0 28.7982 -10.1608 29.7101 0.0 0.0 0.0 0.0 0.0 0.0 98.39272 -12.2129 0.784373 3.93978 6.64583 36.2578 0.0 20.1623 0.0 -19.7065 -4.35056 -29.0833 0.0 0.0 0.0 0.0 0.0 0.0 4.86948 -5.87679 1.61391 0.0 7.34454 0.0 8.39133 6.8199196 2.21614 0.0 -34.396 0.0 2.93244 -3.67286 0.587625 0.0 5.6093 0.0 8.70537 9.68465 -9.17441 0.0 -26.8304 0.0 
  2.5172000122070313 7.55364013671875 9.81843994140625 -156.364 81.5706 158.811 1.69603 -10.6498 -1.77954 1.46595 5.41799 -2.08732 -2.61195 34.1075 4.58926 12.806 -48.3082 9.684 -90.936104 -16.6583 -4.34613 -4.1114 8.99414 -31.1277 0.0 20.7179 0.0 28.8629 -10.1731 29.7319 0.0 0.0 0.0 0.0 0.0 0.0 98.45517 -12.2708 0.703394 3.92298 6.62206 36.2241 0.0 20.189 0.0 -19.6681 -4.45712 -29.0611 0.0 0.0 0.0 0.0 0.0 0.0 4.87056 -5.8874 1.67537 0.0 7.34011 0.0 8.41291 6.8138 2.18555 0.0 -34.4255 0.0 2.92999 -3.68674 0.599853 0.0 5.5968 0.0 8.70738 9.68804 -9.16681 0.0 -26.838501 0.0 
  2.517669982910156 7.552260131835937 9.818489990234376 -156.402 81.5621 158.836 1.70549 -10.6686 -1.76906 1.4549 5.38894 -2.07903 -2.60556 34.1882 4.57712 12.7906 -48.2985 9.69634 -90.92586 -16.6216 -4.31853 -4.19514 8.97123 -31.1331 0.0 20.7676 0.0 28.8703 -10.1252 29.643 0.0 0.0 0.0 0.0 0.0 0.0 98.46392 -12.2138 0.693004 3.91411 6.54679 36.1599 0.0 20.1967 0.0 -19.6438 -4.40223 -29.0444 0.0 0.0 0.0 0.0 0.0 0.0 4.86533 -5.87848 1.65905 0.0 7.32687 0.0 8.3937 6.8177204 2.20603 0.0 -34.402 0.0 2.92811 -3.67978 0.62903 0.0 5.57732 0.0 8.71499 9.68948 -9.18827 0.0 -26.811 0.0 
  2.5180999755859377 7.551090087890625 9.818560180664063 -156.412 81.5595 158.837 1.71004 -10.6776 -1.76622 1.45818 5.36242 -2.07693 -2.6101 34.2565 4.57785 12.7745 -48.3014 9.70881 -90.91647 -16.5768 -4.28751 -4.29486 8.90923 -31.0861 0.0 20.8714 0.0 28.869 -10.0322 29.6633 0.0 0.0 0.0 0.0 0.0 0.0 98.45016 -12.175 0.674912 3.9421 6.51513 36.18 0.0 20.2398 0.0 -19.7369 -4.43334 -29.0267 0.0 0.0 0.0 0.0 0.0 0.0 4.86346 -5.87552 1.69409 0.0 7.33218 0.0 8.42192 6.81421 2.19664 0.0 -34.4045 0.0 2.92783 -3.67386 0.659797 0.0 5.57231 0.0 8.71834 9.68885 -9.21336 0.0 -26.8097 0.0 
  2.518509979248047 7.550029907226563 9.81864013671875 -156.384 81.5631 158.813 1.71873 -10.6798 -1.77068 1.45329 5.35034 -2.08398 -2.60257 34.2914 4.56383 12.7688 -48.3165 9.72144 -90.92895 -16.5277 -4.25031 -4.3341 8.82978 -30.9545 0.0 20.9385 0.0 28.7785 -9.96602 29.5312 0.0 0.0 0.0 0.0 0.0 0.0 98.44461 -12.1761 0.671041 3.96547 6.54097 36.2159 0.0 20.2554 0.0 -19.7457 -4.41193 -29.0735 0.0 0.0 0.0 0.0 0.0 0.0 4.86361 -5.86922 1.69683 0.0 7.34136 0.0 8.41424 6.8047504 2.19306 0.0 -34.4155 0.0 2.92716 -3.66529 0.632623 0.0 5.5792 0.0 8.70717 9.68824 -9.19369 0.0 -26.7934 0.0 
  2.518840026855469 7.548920288085937 9.818729858398438 -156.331 81.5782 158.764 1.63124 -10.7551 -1.85848 1.61989 5.51427 -2.14733 -2.7648 34.2122 4.75587 12.7275 -48.3332 9.65411 -91.05172 -16.5812 -4.27979 -4.3536 8.76718 -30.947 0.0 20.9556 0.0 28.7374 -9.90718 29.4619 0.0 0.0 0.0 0.0 0.0 0.0 98.3653 -12.0211 0.735737 3.97115 6.51883 36.167 0.0 20.2665 0.0 -19.6863 -4.44778 -29.0542 0.0 0.0 0.0 0.0 0.0 0.0 4.86347 -5.85318 1.69769 0.0 7.35535 0.0 8.42459 6.79823 2.18926 0.0 -34.4208 0.0 2.92434 -3.65382 0.622263 0.0 5.6032 0.0 8.71869 9.68136 -9.17491 0.0 -26.8039 0.0 
  2.5194700622558592 7.5480499267578125 9.818569946289063 -156.348 81.5907 158.79 1.63237 -10.7577 -1.86722 1.6 5.51954 -2.15705 -2.74479 34.2216 4.73906 12.7726 -48.3705 9.68201 -91.05021 -16.5367 -4.27743 -4.40319 8.71567 -31.018 0.0 20.9757 0.0 28.7616 -9.91015 29.4741 0.0 0.0 0.0 0.0 0.0 0.0 98.37163 -11.9773 0.718975 3.95802 6.49295 36.1294 0.0 20.2309 0.0 -19.6861 -4.44565 -29.0171 0.0 0.0 0.0 0.0 0.0 0.0 4.85149 -5.84042 1.68601 0.0 7.35728 0.0 8.43679 6.79823 2.19319 0.0 -34.413002 0.0 2.91533 -3.65503 0.602366 0.0 5.64096 0.0 8.71865 9.65383 -9.17153 0.0 -26.8042 0.0 
  2.519429931640625 7.547219848632812 9.8185400390625 -156.311 81.6033 158.76 1.67494 -10.7295 -1.83339 1.5011 5.47207 -2.13633 -2.60114 34.2494 4.56928 12.8176 -48.4042 9.75986 -91.00728 -16.448 -4.23825 -4.43281 8.67524 -31.0806 0.0 21.0037 0.0 28.8304 -9.89579 29.5019 0.0 0.0 0.0 0.0 0.0 0.0 98.42222 -11.9959 0.677851 3.95628 6.45261 36.1277 0.0 20.2147 0.0 -19.7068 -4.43115 -29.0309 0.0 0.0 0.0 0.0 0.0 0.0 4.85335 -5.82578 1.70214 0.0 7.36159 0.0 8.43833 6.79245 2.17178 0.0 -34.4149 0.0 2.91278 -3.65296 0.599545 0.0 5.67407 0.0 8.7385 9.641621 -9.15739 0.0 -26.829 0.0 
  2.5193499755859374 7.546069946289062 9.818480224609376 -156.211 81.6146 158.67 1.73635 -10.6682 -1.78109 1.38347 5.34906 -2.10154 -2.43799 34.3273 4.37409 12.8617 -48.4335 9.85057 -90.930695 -16.3323 -4.16176 -4.46505 8.63466 -31.0497 0.0 21.0132 0.0 28.8568 -9.86904 29.5153 0.0 0.0 0.0 0.0 0.0 0.0 98.45979 -12.0363 0.644737 3.99684 6.38719 36.1375 0.0 20.2245 0.0 -19.7381 -4.41093 -29.0412 0.0 0.0 0.0 0.0 0.0 0.0 4.86241 -5.80367 1.70153 0.0 7.36035 0.0 8.42059 6.77818 2.16392 0.0 -34.3979 0.0 2.92421 -3.62493 0.610983 0.0 5.66596 0.0 8.73557 9.63836 -9.1822 0.0 -26.811901 0.0 
